<?xml version="1.0" standalone="no"?><!DOCTYPE svg PUBLIC "-//W3C//DTD SVG 1.1//EN" "http://www.w3.org/Graphics/SVG/1.1/DTD/svg11.dtd"><svg t="1565450587286" class="icon" viewBox="0 0 1024 1024" version="1.1" xmlns="http://www.w3.org/2000/svg" p-id="4042" width="32" height="32" xmlns:xlink="http://www.w3.org/1999/xlink"><defs><style type="text/css"></style></defs><path d="M820.22683799 974.335097H203.77316201c-30.35106072 0-55.03645251-24.69571177-55.03645251-55.03645251V104.70135551C148.7367095 74.36061477 173.43242126 49.664903 203.77316201 49.664903h616.443356C850.57789872 49.664903 875.2632905 74.36061477 875.2632905 104.70135551v814.586969c0 30.35106072-24.68539179 55.04677249-55.03645251 55.04677249zM214.7845805 908.28722601h594.430839V115.71277399H214.7845805v792.57445202z" p-id="4043" fill="#ffffff"></path><path d="M710.143613 335.86890401H313.856387c-18.24572436 0-33.0239355-14.77821114-33.02393551-33.02393551s14.77821114-33.0239355 33.02393551-33.02393549h396.287226c18.23540438 0 33.0239355 14.77821114 33.02393551 33.02393549s-14.78853112 33.0239355-33.02393551 33.02393551zM602.96030234 534.01251701H316.74598136c-18.24572436 0-33.0239355-14.77821114-33.0239355-33.0239355s14.77821114-33.0239355 33.0239355-33.02393551h286.204001c18.24572436 0 33.0239355 14.77821114 33.02393551 33.02393551s-14.77821114 33.0239355-33.01361553 33.0239355zM602.96030234 732.15613001H316.74598136c-18.24572436 0-33.0239355-14.77821114-33.0239355-33.0239355s14.77821114-33.0239355 33.0239355-33.0239355h286.204001c18.24572436 0 33.0239355 14.77821114 33.02393551 33.0239355 0.01031998 18.24572436-14.77821114 33.0239355-33.01361553 33.0239355z" p-id="4044" fill="#ffffff"></path></svg>