<?xml version="1.0" standalone="no"?><!DOCTYPE svg PUBLIC "-//W3C//DTD SVG 1.1//EN" "http://www.w3.org/Graphics/SVG/1.1/DTD/svg11.dtd"><svg t="1565450768302" class="icon" viewBox="0 0 1024 1024" version="1.1" xmlns="http://www.w3.org/2000/svg" p-id="10003" xmlns:xlink="http://www.w3.org/1999/xlink" width="32" height="32"><defs><style type="text/css"></style></defs><path d="M597.333333 128h-191.936A21.290667 21.290667 0 0 0 384 149.248v554.837333a21.12 21.12 0 0 0 21.141333 21.248H789.546667A21.290667 21.290667 0 0 0 810.666667 703.978667V341.333333h-170.666667a42.666667 42.666667 0 0 1-42.666667-42.666666V128z m-298.666666 85.333333V149.248C298.666667 90.368 346.453333 42.666667 405.397333 42.666667H640a42.666667 42.666667 0 0 1 30.165333 12.501333l213.333334 213.333333A42.666667 42.666667 0 0 1 896 298.666667v405.312A106.624 106.624 0 0 1 789.525333 810.666667H725.333333v63.978666A106.624 106.624 0 0 1 618.858667 981.333333H234.453333A106.432 106.432 0 0 1 128 874.752V319.914667C128 261.034667 175.786667 213.333333 234.730667 213.333333H298.666667z m0 85.333334h-63.936a21.290667 21.290667 0 0 0-21.397334 21.248v554.837333a21.12 21.12 0 0 0 21.141334 21.248H618.88A21.290667 21.290667 0 0 0 640 874.645333V810.666667H405.141333A106.432 106.432 0 0 1 298.666667 704.085333V298.666667z m192 213.333333a42.666667 42.666667 0 1 1 0-85.333333h213.333333a42.666667 42.666667 0 1 1 0 85.333333H490.666667z m0 128a42.666667 42.666667 0 1 1 0-85.333333h128a42.666667 42.666667 0 1 1 0 85.333333h-128z m192-384h67.669333L682.666667 188.330667V256z" fill="#ffffff" p-id="10004"></path></svg>